<svg width="35" height="35" viewBox="0 0 35 35" fill="none" xmlns="http://www.w3.org/2000/svg">
<g clip-path="url(#clip0_8_25)">
<path d="M17.5 -0.0372314C7.83011 -0.0372314 -0.0383301 7.82902 -0.0383301 17.5C-0.0383301 27.1709 7.83011 35.0371 17.5 35.0371C27.1698 35.0371 35.0382 27.1709 35.0382 17.5C35.0382 7.82902 27.1698 -0.0372314 17.5 -0.0372314ZM17.5 33.869C8.47433 33.869 1.13198 26.5256 1.13198 17.5C1.13198 8.47433 8.47433 1.13089 17.5 1.13089C26.5256 1.13089 33.8679 8.47433 33.8679 17.5C33.8679 26.5256 26.5256 33.869 17.5 33.869Z" fill="black"/>
<path d="M27.7025 12.1141C27.0067 12.4225 26.2592 12.6308 25.4734 12.725C26.2842 12.2398 26.8908 11.4762 27.1801 10.5766C26.4183 11.0291 25.5845 11.3476 24.7151 11.5183C24.1304 10.894 23.3559 10.4803 22.512 10.3412C21.668 10.2022 20.8018 10.3456 20.0477 10.7494C19.2937 11.1531 18.694 11.7945 18.3418 12.5739C17.9897 13.3534 17.9047 14.2273 18.1 15.06C16.5565 14.9825 15.0464 14.5813 13.6679 13.8824C12.2894 13.1835 11.0733 12.2026 10.0984 11.0033C9.76505 11.5783 9.57338 12.245 9.57338 12.955C9.57301 13.5941 9.73041 14.2235 10.0316 14.7873C10.3328 15.351 10.7685 15.8317 11.3001 16.1866C10.6836 16.167 10.0808 16.0005 9.54172 15.7008V15.7508C9.54165 16.6473 9.85174 17.5161 10.4194 18.21C10.987 18.9038 11.7772 19.3799 12.6559 19.5575C12.084 19.7122 11.4845 19.735 10.9026 19.6242C11.1505 20.3955 11.6334 21.07 12.2837 21.5533C12.934 22.0365 13.7191 22.3043 14.5292 22.3192C13.1541 23.3987 11.4558 23.9842 9.70755 23.9816C9.39787 23.9817 9.08845 23.9636 8.78088 23.9275C10.5554 25.0685 12.6212 25.674 14.7309 25.6716C21.8725 25.6716 25.7767 19.7566 25.7767 14.6266C25.7767 14.46 25.7726 14.2916 25.7651 14.125C26.5245 13.5758 27.18 12.8957 27.7009 12.1166L27.7025 12.1141V12.1141Z" fill="black"/>
</g>
<defs>
<clipPath id="clip0_8_25">
<rect width="35" height="35" fill="white"/>
</clipPath>
</defs>
</svg>
